<svg xmlns="http://www.w3.org/2000/svg" x="0" y="0" viewBox="0 0 16 16" xml:space="preserve"><path fill="#FFF" d="M8 15.3 1.4 12 1.4 4 8 7.2z"/><path fill="#444" d="m8 15.9-.3-.1-6.6-3.3a.5.5 0 0 1-.3-.5V4c0-.2.1-.4.3-.5h.6l6.6 3.3c.2 0 .3.2.3.4v8.1c0 .2-.1.4-.3.5l-.3.1zm-6-4.2 5.4 2.7V7.6L2 4.9v6.8z"/><path fill="#FFF" d="M8 15.3 14.6 12 14.6 4 8 7.2z"/><path fill="#444" d="m8 15.9-.3-.1a.5.5 0 0 1-.3-.5V7.2c0-.2.1-.4.3-.5l6.6-3.3h.6c.2.1.3.3.3.5V12c0 .2-.1.4-.3.5l-6.6 3.3-.3.1zm.6-8.3v6.8l5.4-2.7V4.9L8.6 7.6z"/><path fill="#FFF" d="M1.4 4 8 .7 14.6 4 8 7.2z"/><path fill="#444" d="m8 7.8-.3-.1-6.5-3.2C.9 4.4.8 4.2.8 4s.1-.4.3-.5L7.7.2c.2-.2.4-.2.6-.1l6.6 3.3c.2.1.3.3.3.5s-.1.4-.3.5L8.3 7.8H8zM2.8 4 8 6.6 13.2 4 8 1.3 2.8 4z"/><path fill="#FFF" d="M8 14.9 12.5 12.4 10.3 8.5 8 4.6 5.7 8.5 3.5 12.4z"/><path fill="#444" d="M7.9 1.1H8.2V5.4H7.9z"/><path fill="#444" d="M11.7 12.1 14.6 12 7.9 15.2 7.9 15.2 10.3 13.2 10.6 12.9z"/><path fill="#444" d="M8 .7 8 3.3 8 5.7 7.1 7.2 5.4 10 4.2 12 1.4 12 3.7 8z"/><path fill="#444" d="M8 .8 8 3.3 8 5.7 8.9 7.2 10.6 10.1 11.8 12.1 14.6 12 12.2 7.9z"/><path fill="#444" d="M1.4 12.1 4.3 12 7.9 15.2 3.4 13 2.7 12.7 2.4 12.5z"/><path fill="#444" d="M9.8 8.8 8.8 8.8 6.1 8.9 9.8 11 11.7 12 10.3 9.7z"/><path fill="#444" d="M1.4 12 4.2 12"/><path fill="#444" d="M4.2 12.2H1.4l-.1-.1.1-.1h2.8l.1.1-.1.1z"/><path fill="#444" d="M11.8 12 14.6 12.1"/><path fill="#444" d="M14.6 12.2h-2.8l-.1-.1.1-.1h2.8l.1.1-.1.1z"/><path fill="#444" d="M8 5.6 4.2 12"/><path fill="#444" d="M3.8 12.9c-.1-.1-.2-.1-.1-.2l4.6-7.9.2-.1.1.2L4 12.8l-.2.1z"/><path fill="#444" d="M11.7 12 8 5.6"/><path fill="#444" d="m12 12.7-.1-.1-4.4-7.5v-.2h.2l4.4 7.6c.1.1.1.2-.1.2.1 0 .1 0 0 0z"/><path fill="#444" d="M8 15.2 4.2 12"/><path fill="#444" d="m8 15.5-.2-.1-3.7-3.2v-.3h.3L8.1 15v.3l-.1.2z"/><path fill="#444" d="M11.8 12 8 15.2"/><path fill="#444" d="m8 15.5-.2-.1v-.3l3.8-3.2h.3v.3l-3.8 3.2-.1.1z"/><path fill="#444" d="M6.1 8.8 9.8 8.8"/><path fill="#444" d="M9.8 8.9H6.1L6 8.8l.1-.1h3.7l.1.1-.1.1z"/><path fill="#444" d="M6.1 8.8 11.8 12"/><path fill="#444" d="M11.8 12.2c-.1 0-.1 0 0 0L6 8.9v-.1c0-.1.1-.1.2 0l5.7 3.2c.1 0 .1.1 0 .2-.1-.1-.1 0-.1 0z"/><path fill="#444" d="M7.8 14.7 6.3 9.3"/><path transform="rotate(-16.1 7 12)" fill="#444" d="M6.6 9.2H7.4V14.8H6.6z"/><path fill="#444" d="m7.8 14.9-.2-.1-1.5-5.4.1-.2.2.1L8 14.6c0 .1 0 .3-.2.3z"/><path fill="#444" d="M7.8 15.2a.7.7 0 0 1-.6-.4L5.7 9.6c-.1-.3.1-.7.4-.8h.5l.2.4 1.6 5.2c.1.3-.1.6-.4.7l-.2.1z"/><path fill="#444" d="m8 15.4-.2-.1c-.1-.1 0-.3.1-.3l6.6-3.1c.1-.1.3 0 .3.1.1.1 0 .3-.1.3l-6.6 3.1H8z"/><path fill="#444" d="M8 15.2 14.6 12.1"/><path fill="#444" d="M1.4 12.1 7.9 15.2"/><path fill="#444" d="M7.9 15.4h-.1l-6.5-3.1c-.1-.1-.2-.2-.1-.3.1-.1.2-.2.3-.1L8 15c.1.1.2.2.1.3l-.2.1z"/><path fill="#444" d="M8 .8 1.4 12"/><path fill="#444" d="M1.4 12.3h-.1l-.1-.3L7.8.7c0-.1.2-.2.3-.1l.1.3-6.6 11.2-.2.2z"/><path fill="#444" d="M14.6 12 8 .8"/><path fill="#444" d="m14.6 12.3-.2-.1L7.8.9c-.1-.1 0-.3.1-.3.1-.1.3 0 .3.1l6.6 11.2c.1.1 0 .3-.1.3l-.1.1z"/></svg>
